<?xml version="1.0" encoding="UTF-8"?>
<svg version="1.1" xmlns="http://www.w3.org/2000/svg" width="500" height="500">
<path d="M0 0 C42.57 0 85.14 0 129 0 C129.04898438 20.59277344 129.09796875 41.18554688 129.1484375 62.40234375 C129.18382373 75.44987383 129.21969161 88.49739992 129.2578125 101.54492188 C129.27781841 108.40095986 129.29770252 115.25699818 129.31738281 122.11303711 C129.31985425 122.97224666 129.32232569 123.8314562 129.32487202 124.7167024 C129.3645153 138.56057775 129.39729102 152.40446119 129.42749982 166.24835997 C129.4586911 180.4719323 129.49733288 194.69547055 129.54279006 208.9190045 C129.57057353 217.68496958 129.59265014 226.45090994 129.60726251 235.21690703 C129.6178619 241.24042498 129.63574393 247.26389486 129.65916704 253.28737646 C129.67244101 256.75472712 129.68268268 260.22201086 129.68421364 263.68938828 C129.70969198 292.34007452 130.62929556 321.39967897 149 345 C150.1446875 346.5159375 150.1446875 346.5159375 151.3125 348.0625 C152.86175156 350.08952153 152.86175156 350.08952153 155 351 C155 351.66 155 352.32 155 353 C155.56203125 353.27070313 156.1240625 353.54140625 156.703125 353.8203125 C159.12932629 355.06642268 161.42653361 356.44688212 163.75 357.875 C179.51559051 367.32976462 196.31837353 372.81795776 214.6875 368.5 C224.78114562 365.93937728 234.43845613 361.40450827 242.83984375 355.24609375 C246 353 246 353 248 353 C248 352.34 248 351.68 248 351 C249.14259315 349.85740685 250.28810377 348.71763192 251.4453125 347.58984375 C269.12075879 329.51470143 273.13671639 303.00055148 273.15821838 278.74996948 C273.16562535 276.9546825 273.16562535 276.9546825 273.17318195 275.1231271 C273.1858141 271.82786074 273.19414799 268.53261694 273.20060861 265.23733377 C273.20866317 261.67372869 273.22234328 258.1101445 273.23532104 254.54655457 C273.25701256 248.38127172 273.27518357 242.21598668 273.29092598 236.05068588 C273.31369167 227.13682638 273.34182498 218.22299008 273.37124526 209.30915035 C273.41883934 194.84510791 273.46212554 180.38105594 273.50268555 165.91699219 C273.54208222 151.87108621 273.58352945 137.82518873 273.62768555 123.77929688 C273.63180981 122.46617677 273.63180981 122.46617677 273.63601738 121.12652898 C273.65753803 114.27966121 273.67917716 107.43279381 273.70085371 100.58592653 C273.80697191 67.05730152 273.90276152 33.52865422 274 0 C316.57 0 359.14 0 403 0 C403.0806627 72.89219155 403.0806627 72.89219155 403.09765625 103.43359375 C403.10157138 110.42301442 403.10561217 117.412435 403.10986328 124.40185547 C403.11039078 125.27773988 403.11091828 126.15362429 403.11146176 127.05605066 C403.12013574 141.15518533 403.13588965 155.25430351 403.15430559 169.35342844 C403.17307749 183.84707269 403.18413206 198.34070838 403.18817699 212.8343643 C403.190907 221.7615623 403.19949647 230.6887137 403.21583293 239.61589734 C403.22649005 245.75623272 403.22958113 251.89654438 403.22700275 258.03688832 C403.22573488 261.56766021 403.22753262 265.09835129 403.23841095 268.62910843 C403.28979592 288.21875365 402.95244657 307.82009171 399.25 327.125 C399.08298584 328.01622559 398.91597168 328.90745117 398.74389648 329.82568359 C391.37401462 367.27961481 373.04985554 402.32819917 340.8125 424.125 C315.53506647 440.68862449 286.75412214 448.40536171 257 452 C256.28184616 452.08846191 255.56369232 452.17692383 254.82377625 452.26806641 C245.35961643 453.27871691 235.87712374 453.18362402 226.37109375 453.203125 C225.4317354 453.20595238 224.49237705 453.20877975 223.5245533 453.21169281 C218.54086154 453.22662367 213.55719821 453.23588833 208.57348633 453.24023438 C204.5095918 453.24459686 200.44591222 453.25841025 196.38208008 453.28125 C144.74272202 453.56565021 92.15698125 449.83015529 51 415 C49.76443359 413.96746094 49.76443359 413.96746094 48.50390625 412.9140625 C15.94903716 384.77771698 3.9412174 341.80633727 0.64591706 300.38366228 C-0.26921575 287.78756685 -0.27176417 275.20407036 -0.23213124 262.58089244 C-0.2233136 259.04005907 -0.22642952 255.49923058 -0.22793579 251.95838928 C-0.22897334 245.8555517 -0.22281689 239.7527576 -0.21146011 233.64993095 C-0.19505198 224.82679251 -0.18998165 216.00367461 -0.18748413 207.18052257 C-0.18313073 192.85788535 -0.16988634 178.53527121 -0.15087891 164.21264648 C-0.13245859 150.31779085 -0.11835538 136.42294156 -0.10986328 122.52807617 C-0.10932729 121.65970023 -0.10879129 120.79132429 -0.10823905 119.89663392 C-0.10407905 113.10313633 -0.10016561 106.3096386 -0.09632993 99.51614082 C-0.07753779 66.34407269 -0.03728362 33.17206246 0 0 Z M6 5 C5.93201557 42.42751111 5.87838225 79.85500581 5.84680401 117.28256637 C5.84305242 121.71295451 5.8391694 126.14334252 5.83520508 130.57373047 C5.83441815 131.45564761 5.83363122 132.33756474 5.83282044 133.24620664 C5.81980802 147.47900363 5.79617743 161.71176382 5.76854161 175.94453907 C5.74037098 190.57605323 5.72379925 205.20754828 5.71773452 219.83908844 C5.7136421 228.84922123 5.70077252 237.85925 5.6762506 246.86935073 C5.66024903 253.06904339 5.65563179 259.26868319 5.65949587 265.46839494 C5.66139531 269.03185812 5.65872998 272.59514109 5.64238358 276.15857124 C5.55135373 297.04512937 6.28499433 317.94761422 11.6875 338.25 C11.94168701 339.22904297 12.19587402 340.20808594 12.45776367 341.21679688 C21.96870995 376.40245866 41.97860807 406.25355333 73.78515625 424.85546875 C92.59297536 435.40557873 112.78193039 441.56353418 134 445 C134.69931641 445.11569336 135.39863281 445.23138672 136.11914062 445.35058594 C142.12429634 446.32823689 147.90733072 447.10912243 154 447 C151.11429455 445.46234013 148.30044355 444.40459166 145.16796875 443.4765625 C125.01918501 437.2882145 105.99625724 428.9747522 90 415 C89.24203125 414.36094727 89.24203125 414.36094727 88.46875 413.70898438 C57.67853486 387.72974035 43.79305181 347.07293366 40.45163918 307.92924881 C39.12109378 290.94347118 38.69454447 274.0586205 38.68115234 257.02636719 C38.67289226 254.25379175 38.66173346 251.4812296 38.65071106 248.70866394 C38.62871997 242.80561574 38.61354009 236.90258402 38.60334396 230.99950409 C38.58859272 222.46524706 38.56301337 213.93104772 38.53501268 205.3968251 C38.48983843 191.54174653 38.45310422 177.68665949 38.421875 163.83154297 C38.39156779 150.39370243 38.35716295 136.95588239 38.31738281 123.51806641 C38.31492126 122.68607691 38.31245972 121.85408741 38.30992357 120.9968861 C38.29754662 116.82193965 38.28509055 112.64699343 38.27259517 108.47204733 C38.16946847 73.98139236 38.08065478 39.49071454 38 5 C27.44 5 16.88 5 6 5 Z M279 5 C278.99413376 8.57620178 278.98826752 12.15240356 278.98222351 15.8369751 C278.92694029 48.70114779 278.85691911 81.56526222 278.77101372 114.42936952 C278.7597468 118.74474216 278.74860814 123.06011511 278.73754883 127.37548828 C278.73534514 128.23452974 278.73314146 129.0935712 278.730871 129.97864422 C278.69558719 143.85198912 278.67067288 157.72533398 278.64965298 171.59870699 C278.62781963 185.85507567 278.59469839 200.11138658 278.55129844 214.36770606 C278.52491088 223.15056647 278.50712083 231.93335504 278.50065396 240.71625307 C278.4953603 246.75522891 278.47901182 252.7941147 278.45433434 258.83304211 C278.44045401 262.30687065 278.43109711 265.7805385 278.43499184 269.25439644 C278.44788386 298.44373531 276.7203318 329.6554181 255.21484375 351.859375 C254.11849609 352.91898437 254.11849609 352.91898437 253 354 C252.01193359 354.96679688 252.01193359 354.96679688 251.00390625 355.953125 C243.39530937 362.9952871 234.69328267 367.49391904 225 371 C225 371.33 225 371.66 225 372 C247.56955475 373.04345544 269.17013243 366.68123367 286.625 352.171875 C303.99909346 336.28372375 310.9432577 311.68931447 312.16886687 288.85365772 C312.41158191 281.04200024 312.3851069 273.22939713 312.34819686 265.41484952 C312.33503639 261.90733085 312.33963983 258.39982468 312.34190369 254.89228821 C312.34346401 248.83954081 312.33418633 242.78689169 312.31719017 236.73416901 C312.29263395 227.98335483 312.28497807 219.23258736 312.2812262 210.48174247 C312.27468752 196.27832884 312.25479716 182.07496739 312.22631836 167.87158203 C312.19871043 154.08805601 312.17750997 140.30454425 312.16479492 126.52099609 C312.16400675 125.66898283 312.16321858 124.81696957 312.16240653 123.93913773 C312.15849094 119.66412205 312.15469993 115.38910628 312.15097082 111.11409044 C312.11995553 75.74268827 312.06635552 40.37135249 312 5 C301.11 5 290.22 5 279 5 Z M44 5 C43.93372767 42.44454851 43.87838773 79.88904122 43.84680401 117.3336317 C43.84305238 121.76530861 43.83916937 126.19698539 43.83520508 130.62866211 C43.83441815 131.51084156 43.83363122 132.393021 43.83282044 133.30193316 C43.81980546 147.54187222 43.79617342 161.78177453 43.76854161 176.02169187 C43.74037818 190.65885126 43.72380076 205.29599156 43.71773452 219.93317693 C43.71364063 228.94791899 43.70076283 237.96255716 43.6762506 246.9772672 C43.66025798 253.17882149 43.65562982 259.38032295 43.65949587 265.58189631 C43.66139666 269.14726079 43.65871374 272.71244518 43.64238358 276.27777672 C43.55195639 297.05628573 44.63151756 317.45472494 49.6875 337.6875 C49.94096191 338.71657471 50.19442383 339.74564941 50.45556641 340.8059082 C59.25489901 374.997676 79.38991506 405.15129488 109.77929688 423.70458984 C131.28272651 436.24825713 154.50615892 442.5497875 179 446 C179.8245166 446.12246094 180.6490332 446.24492187 181.49853516 446.37109375 C191.90275148 447.88073345 201.86362715 448.11871551 212.35375977 447.2824707 C216.52314124 446.98246774 220.09503654 446.87914671 224.1484375 447.96875 C236.61278838 451.10610092 250.06708048 448.61627983 262.5 446.4375 C263.2793692 446.30439423 264.0587384 446.17128845 264.86172485 446.03414917 C304.75294801 439.17817104 343.56601721 424.18869809 368.1875 390.375 C395.2177613 351.46144906 398.17882787 305.90277875 398.11352539 260.09155273 C398.11268326 257.30090305 398.11335866 254.51025419 398.1139679 251.71960449 C398.11448877 245.74377935 398.11138791 239.76796524 398.10573006 233.79214287 C398.09755544 225.15242179 398.09499377 216.51270597 398.09374207 207.87298144 C398.09156085 193.8509462 398.08492614 179.82891683 398.07543945 165.80688477 C398.06624116 152.19685902 398.05917219 138.58683487 398.05493164 124.97680664 C398.05466892 124.13595319 398.05440619 123.29509974 398.05413551 122.42876589 C398.05283034 118.20987452 398.05156666 113.99098313 398.05032361 109.77209175 C398.03998 74.84805595 398.02155743 39.92403102 398 5 C371.27 5 344.54 5 317 5 C316.98541748 13.68546143 316.97083496 22.37092285 316.95581055 31.31958008 C316.90696608 59.16729313 316.84353301 87.01495606 316.77101372 114.86261712 C316.75974669 119.1942998 316.74860805 123.5259828 316.73754883 127.85766602 C316.73534514 128.7199604 316.73314146 129.58225479 316.730871 130.47067931 C316.6955796 144.39966528 316.67066954 158.3286512 316.64965298 172.25766519 C316.62782572 186.56939954 316.59471014 200.8810763 316.55129844 215.1927616 C316.5249005 224.01094077 316.50711804 232.8290483 316.50065396 241.64726498 C316.49536353 247.70912713 316.47902555 253.77089943 316.45433434 259.83271328 C316.44044321 263.3205947 316.43110132 266.80831576 316.43499184 270.2962265 C316.44768173 299.16822757 314.45323594 329.93118887 293.21484375 351.859375 C292.11849609 352.91898437 292.11849609 352.91898437 291 354 C290.34128906 354.64453125 289.68257812 355.2890625 289.00390625 355.953125 C269.63455714 373.88049038 240.44123113 377.86241461 215 377 C211.1896736 376.77145922 207.38414297 376.51027478 203.578125 376.21875 C201.13394036 376.06932386 198.68305843 376.00956285 196.234375 376.02734375 C192.71948738 375.99762852 190.29553682 375.16716929 187 374 C185.741875 373.835 184.48375 373.67 183.1875 373.5 C182.135625 373.335 181.08375 373.17 180 373 C179.67 372.34 179.34 371.68 179 371 C177.21437653 370.18808554 175.39479858 369.4502415 173.5625 368.75 C153.06383606 360.40498178 140.66739108 345.90308274 132 326 C124.25993199 306.88437748 124.54433679 285.56715605 124.56726015 265.2987839 C124.56789427 261.79192684 124.55116977 258.28514188 124.53674316 254.77832031 C124.51414171 248.72835409 124.50210437 242.67844472 124.49761391 236.62843895 C124.49110593 227.88157828 124.46808813 219.13481959 124.44127061 210.38800041 C124.39818018 196.19072891 124.36811265 181.99346175 124.34643555 167.79614258 C124.3253723 154.01942822 124.29805099 140.24274925 124.26245117 126.46606445 C124.26025235 125.61431392 124.25805352 124.76256338 124.25578807 123.88500222 C124.24471708 119.61125682 124.23352453 115.33751176 124.22227156 111.06376684 C124.12933817 75.70919936 124.06005979 40.3546416 124 5 C97.6 5 71.2 5 44 5 Z " fill="#333333" transform="translate(41,21)"/>
</svg>
