<?xml version="1.0" encoding="UTF-8"?>
<svg version="1.1" xmlns="http://www.w3.org/2000/svg" width="500" height="500">
<path d="M0 0 C42.57 0 85.14 0 129 0 C129.04898438 20.59277344 129.09796875 41.18554688 129.1484375 62.40234375 C129.18382373 75.44987383 129.21969161 88.49739992 129.2578125 101.54492188 C129.27781841 108.40095986 129.29770252 115.25699818 129.31738281 122.11303711 C129.31985425 122.97224666 129.32232569 123.8314562 129.32487202 124.7167024 C129.3645153 138.56057775 129.39729102 152.40446119 129.42749982 166.24835997 C129.4586911 180.4719323 129.49733288 194.69547055 129.54279006 208.9190045 C129.57057353 217.68496958 129.59265014 226.45090994 129.60726251 235.21690703 C129.6178619 241.24042498 129.63574393 247.26389486 129.65916704 253.28737646 C129.67244101 256.75472712 129.68268268 260.22201086 129.68421364 263.68938828 C129.70969198 292.34007452 130.62929556 321.39967897 149 345 C150.1446875 346.5159375 150.1446875 346.5159375 151.3125 348.0625 C152.86175156 350.08952153 152.86175156 350.08952153 155 351 C155 351.66 155 352.32 155 353 C155.56203125 353.27070313 156.1240625 353.54140625 156.703125 353.8203125 C159.12932629 355.06642268 161.42653361 356.44688212 163.75 357.875 C179.51559051 367.32976462 196.31837353 372.81795776 214.6875 368.5 C224.78114562 365.93937728 234.43845613 361.40450827 242.83984375 355.24609375 C246 353 246 353 248 353 C248 352.34 248 351.68 248 351 C249.14259315 349.85740685 250.28810377 348.71763192 251.4453125 347.58984375 C269.12075879 329.51470143 273.13671639 303.00055148 273.15821838 278.74996948 C273.16562535 276.9546825 273.16562535 276.9546825 273.17318195 275.1231271 C273.1858141 271.82786074 273.19414799 268.53261694 273.20060861 265.23733377 C273.20866317 261.67372869 273.22234328 258.1101445 273.23532104 254.54655457 C273.25701256 248.38127172 273.27518357 242.21598668 273.29092598 236.05068588 C273.31369167 227.13682638 273.34182498 218.22299008 273.37124526 209.30915035 C273.41883934 194.84510791 273.46212554 180.38105594 273.50268555 165.91699219 C273.54208222 151.87108621 273.58352945 137.82518873 273.62768555 123.77929688 C273.63180981 122.46617677 273.63180981 122.46617677 273.63601738 121.12652898 C273.65753803 114.27966121 273.67917716 107.43279381 273.70085371 100.58592653 C273.80697191 67.05730152 273.90276152 33.52865422 274 0 C316.57 0 359.14 0 403 0 C403.0806627 72.89219155 403.0806627 72.89219155 403.09765625 103.43359375 C403.10157138 110.42301442 403.10561217 117.412435 403.10986328 124.40185547 C403.11039078 125.27773988 403.11091828 126.15362429 403.11146176 127.05605066 C403.12013574 141.15518533 403.13588965 155.25430351 403.15430559 169.35342844 C403.17307749 183.84707269 403.18413206 198.34070838 403.18817699 212.8343643 C403.190907 221.7615623 403.19949647 230.6887137 403.21583293 239.61589734 C403.22649005 245.75623272 403.22958113 251.89654438 403.22700275 258.03688832 C403.22573488 261.56766021 403.22753262 265.09835129 403.23841095 268.62910843 C403.28979592 288.21875365 402.95244657 307.82009171 399.25 327.125 C399.08298584 328.01622559 398.91597168 328.90745117 398.74389648 329.82568359 C391.37401462 367.27961481 373.04985554 402.32819917 340.8125 424.125 C315.53506647 440.68862449 286.75412214 448.40536171 257 452 C256.28184616 452.08846191 255.56369232 452.17692383 254.82377625 452.26806641 C245.35961643 453.27871691 235.87712374 453.18362402 226.37109375 453.203125 C225.4317354 453.20595238 224.49237705 453.20877975 223.5245533 453.21169281 C218.54086154 453.22662367 213.55719821 453.23588833 208.57348633 453.24023438 C204.5095918 453.24459686 200.44591222 453.25841025 196.38208008 453.28125 C144.74272202 453.56565021 92.15698125 449.83015529 51 415 C49.76443359 413.96746094 49.76443359 413.96746094 48.50390625 412.9140625 C16.63035606 385.36656358 4.40463082 343.46224642 0.71428776 302.85621643 C-0.23132842 289.7886608 -0.13633726 276.72105828 -0.11606562 263.62548304 C-0.11169791 260.07835562 -0.11321197 256.5312297 -0.1139679 252.98410034 C-0.11448917 246.8565629 -0.11138409 240.7290362 -0.10573006 234.60150146 C-0.09756091 225.74240077 -0.09499432 216.88330521 -0.09374207 208.02420115 C-0.09156001 193.64666502 -0.08492297 179.2691346 -0.07543945 164.89160156 C-0.06624337 150.93522164 -0.05918479 136.97884328 -0.05493164 123.02246094 C-0.05466364 122.15167302 -0.05439565 121.2808851 -0.05411953 120.38370967 C-0.05203979 113.5723483 -0.05008297 106.7609869 -0.04816496 99.94962549 C-0.03875197 66.63307842 -0.01862878 33.31654566 0 0 Z M6 5 C5.93201557 42.42751111 5.87838225 79.85500581 5.84680401 117.28256637 C5.84305242 121.71295451 5.8391694 126.14334252 5.83520508 130.57373047 C5.83441815 131.45564761 5.83363122 132.33756474 5.83282044 133.24620664 C5.81980802 147.47900363 5.79617743 161.71176382 5.76854161 175.94453907 C5.74037098 190.57605323 5.72379925 205.20754828 5.71773452 219.83908844 C5.7136421 228.84922123 5.70077252 237.85925 5.6762506 246.86935073 C5.66024903 253.06904339 5.65563179 259.26868319 5.65949587 265.46839494 C5.66139531 269.03185812 5.65872998 272.59514109 5.64238358 276.15857124 C5.55135373 297.04512937 6.28499433 317.94761422 11.6875 338.25 C11.94168701 339.22904297 12.19587402 340.20808594 12.45776367 341.21679688 C21.96870995 376.40245866 41.97860807 406.25355333 73.78515625 424.85546875 C92.59297536 435.40557873 112.78193039 441.56353418 134 445 C134.69931641 445.11569336 135.39863281 445.23138672 136.11914062 445.35058594 C142.12429634 446.32823689 147.90733072 447.10912243 154 447 C151.11429455 445.46234013 148.30044355 444.40459166 145.16796875 443.4765625 C125.01918501 437.2882145 105.99625724 428.9747522 90 415 C89.24203125 414.36094727 89.24203125 414.36094727 88.46875 413.70898438 C56.85646912 387.03612238 43.48274683 345.03759313 40 305 C38.79510701 289.36970101 38.82939662 273.7148421 38.79467773 258.0480957 C38.78560145 255.27685194 38.77510886 252.50561395 38.76467896 249.734375 C38.74309863 243.806615 38.72488852 237.87885269 38.70907402 231.9510746 C38.68620486 223.38086988 38.65808735 214.81068844 38.62875474 206.24050369 C38.58128551 192.33051218 38.53796646 178.42051104 38.49731445 164.51049805 C38.45785357 151.0111415 38.41640261 137.51179344 38.37231445 124.01245117 C38.36959018 123.17809716 38.36686591 122.34374315 38.36405908 121.48410568 C38.35037786 117.29772361 38.33665794 113.11134166 38.32291877 108.92495978 C38.20927935 74.28332406 38.10265885 39.6416699 38 5 C27.44 5 16.88 5 6 5 Z M91 5 C90.93203721 40.94984759 90.87839384 76.89967635 90.84680401 112.84957511 C90.84305235 117.10357427 90.83916934 121.3575733 90.83520508 125.61157227 C90.83441815 126.45838896 90.83363122 127.30520565 90.83282044 128.17768345 C90.8198026 141.8499201 90.79616894 155.52211852 90.76854161 169.19433256 C90.74038621 183.24613578 90.72380243 197.29791912 90.71773452 211.34974939 C90.71363898 220.00519835 90.70075203 228.6605392 90.6762506 237.31595484 C90.66026795 243.26893549 90.65562763 249.22186108 90.65949587 255.17486157 C90.66139819 258.59825399 90.6570009 262.02130926 90.64238358 265.44469261 C90.51786388 296.13679355 92.51526284 327.68633243 115 351 C133.25379899 367.03203646 155.12953755 372.6441804 179 372 C176.25018087 370.16678725 173.47911654 368.75742325 170.50366211 367.33569336 C163.35086949 363.89752914 156.93262081 360.35171836 151 355 C150.1028125 354.24009766 150.1028125 354.24009766 149.1875 353.46484375 C132.71369647 338.49868741 126.5682722 313.41467759 125 292 C124.86026919 287.96686358 124.84541077 283.93714121 124.84178162 279.90182495 C124.83684364 278.72130118 124.83190566 277.5407774 124.82681805 276.32448018 C124.81418783 273.07482008 124.80585277 269.82518286 124.79939139 266.57550573 C124.79133568 263.0609807 124.77765598 259.54647685 124.76467896 256.03196716 C124.74298904 249.9518081 124.72481746 243.87164683 124.70907402 237.79146957 C124.68630685 229.00068624 124.65817375 220.20992642 124.62875474 211.41916312 C124.58116246 197.15477802 124.53787578 182.89038326 124.49731445 168.62597656 C124.45791686 154.77408091 124.4164805 140.92219381 124.37231445 127.0703125 C124.36959018 126.215672 124.36686591 125.36103151 124.36405908 124.48049282 C124.3503789 120.1927706 124.33665877 115.90504852 124.32291877 111.6173265 C124.20908548 76.07823528 124.10251392 40.53912556 124 5 C113.11 5 102.22 5 91 5 Z M279 5 C278.99413376 8.57620178 278.98826752 12.15240356 278.98222351 15.8369751 C278.92694029 48.70114779 278.85691911 81.56526222 278.77101372 114.42936952 C278.7597468 118.74474216 278.74860814 123.06011511 278.73754883 127.37548828 C278.73534514 128.23452974 278.73314146 129.0935712 278.730871 129.97864422 C278.69558719 143.85198912 278.67067288 157.72533398 278.64965298 171.59870699 C278.62781963 185.85507567 278.59469839 200.11138658 278.55129844 214.36770606 C278.52491088 223.15056647 278.50712083 231.93335504 278.50065396 240.71625307 C278.4953603 246.75522891 278.47901182 252.7941147 278.45433434 258.83304211 C278.44045401 262.30687065 278.43109711 265.7805385 278.43499184 269.25439644 C278.44788386 298.44373531 276.7203318 329.6554181 255.21484375 351.859375 C254.11849609 352.91898437 254.11849609 352.91898437 253 354 C252.01193359 354.96679688 252.01193359 354.96679688 251.00390625 355.953125 C243.39530937 362.9952871 234.69328267 367.49391904 225 371 C225 371.33 225 371.66 225 372 C247.56955475 373.04345544 269.17013243 366.68123367 286.625 352.171875 C303.99909346 336.28372375 310.9432577 311.68931447 312.16886687 288.85365772 C312.41158191 281.04200024 312.3851069 273.22939713 312.34819686 265.41484952 C312.33503639 261.90733085 312.33963983 258.39982468 312.34190369 254.89228821 C312.34346401 248.83954081 312.33418633 242.78689169 312.31719017 236.73416901 C312.29263395 227.98335483 312.28497807 219.23258736 312.2812262 210.48174247 C312.27468752 196.27832884 312.25479716 182.07496739 312.22631836 167.87158203 C312.19871043 154.08805601 312.17750997 140.30454425 312.16479492 126.52099609 C312.16400675 125.66898283 312.16321858 124.81696957 312.16240653 123.93913773 C312.15849094 119.66412205 312.15469993 115.38910628 312.15097082 111.11409044 C312.11995553 75.74268827 312.06635552 40.37135249 312 5 C301.11 5 290.22 5 279 5 Z M44 5 C43.93202581 42.44453289 43.87838773 79.8890494 43.84680401 117.3336317 C43.84305238 121.76530861 43.83916937 126.19698539 43.83520508 130.62866211 C43.83441815 131.51084156 43.83363122 132.393021 43.83282044 133.30193316 C43.81980546 147.54187222 43.79617342 161.78177453 43.76854161 176.02169187 C43.74037818 190.65885126 43.72380076 205.29599156 43.71773452 219.93317693 C43.71364063 228.94791899 43.70076283 237.96255716 43.6762506 246.9772672 C43.66025798 253.17882149 43.65562982 259.38032295 43.65949587 265.58189631 C43.66139666 269.14726079 43.65871374 272.71244518 43.64238358 276.27777672 C43.55195639 297.05628573 44.63151756 317.45472494 49.6875 337.6875 C49.94096191 338.71657471 50.19442383 339.74564941 50.45556641 340.8059082 C59.25489901 374.997676 79.38991506 405.15129488 109.77929688 423.70458984 C131.27538107 436.24397229 154.50935695 442.56706304 179 446 C179.84046875 446.12246094 180.6809375 446.24492187 181.546875 446.37109375 C223.14036374 452.26571238 269.96925957 441.21833993 304.00732422 416.4675293 C335.37564433 392.85844201 351.86754894 356.60702232 357.36035156 318.38574219 C357.48893555 317.43344727 357.61751953 316.48115234 357.75 315.5 C357.86569336 314.64825195 357.98138672 313.79650391 358.10058594 312.91894531 C360.39404372 294.09028429 360.14102632 275.04891536 360.11352539 256.11816406 C360.11268227 253.36648023 360.11335899 250.61479724 360.1139679 247.8631134 C360.11448784 241.98064971 360.111397 236.09819726 360.10573006 230.21573639 C360.0975424 221.71107965 360.09499246 213.20642826 360.09374207 204.70176801 C360.09156286 190.89769253 360.08493369 177.09362303 360.07543945 163.28955078 C360.0662359 149.89404327 360.05916953 136.49853739 360.05493164 123.10302734 C360.05466892 122.27491005 360.05440619 121.44679275 360.05413551 120.59358099 C360.05283031 116.43843781 360.05156664 112.28329462 360.05032361 108.12815142 C360.03998627 73.75209647 360.02212043 39.3760493 360 5 C345.81 5 331.62 5 317 5 C316.99413376 8.59095047 316.98826752 12.18190094 316.98222351 15.88166809 C316.92694953 48.87535886 316.85693384 81.86899155 316.77101372 114.86261712 C316.75974669 119.1942998 316.74860805 123.5259828 316.73754883 127.85766602 C316.73534514 128.7199604 316.73314146 129.58225479 316.730871 130.47067931 C316.6955796 144.39966528 316.67066954 158.3286512 316.64965298 172.25766519 C316.62782572 186.56939954 316.59471014 200.8810763 316.55129844 215.1927616 C316.5249005 224.01094077 316.50711804 232.8290483 316.50065396 241.64726498 C316.49536353 247.70912713 316.47902555 253.77089943 316.45433434 259.83271328 C316.44044321 263.3205947 316.43110132 266.80831576 316.43499184 270.2962265 C316.44768173 299.16822757 314.45323594 329.93118887 293.21484375 351.859375 C292.11849609 352.91898437 292.11849609 352.91898437 291 354 C290.34128906 354.64453125 289.68257812 355.2890625 289.00390625 355.953125 C269.65653282 373.86015071 240.42259114 377.90080047 215 377 C212.52029173 376.81980428 210.0411388 376.63185355 207.5625 376.4375 C201.97967917 376.03024255 196.72635195 376.08123969 191.171875 376.74609375 C166.42949997 378.72670259 136.47034691 374.706838 116.74609375 358.390625 C96.8992436 341.16392047 89.33130005 317.58142471 87 292 C86.51183254 283.10837178 86.55719169 274.20110763 86.56726015 265.2987839 C86.56789427 261.79192684 86.55116977 258.28514188 86.53674316 254.77832031 C86.51414171 248.72835409 86.50210437 242.67844472 86.49761391 236.62843895 C86.49110593 227.88157828 86.46808813 219.13481959 86.44127061 210.38800041 C86.39818018 196.19072891 86.36811265 181.99346175 86.34643555 167.79614258 C86.3253723 154.01942822 86.29805099 140.24274925 86.26245117 126.46606445 C86.26025235 125.61431392 86.25805352 124.76256338 86.25578807 123.88500222 C86.24471708 119.61125682 86.23352453 115.33751176 86.22227156 111.06376684 C86.12933819 75.70920668 86.0584399 40.35463301 86 5 C72.14 5 58.28 5 44 5 Z M365 5 C364.99191315 8.55701187 364.98382629 12.11402374 364.97549438 15.77882385 C364.90023695 48.48390932 364.81529577 81.18895803 364.71994839 113.89399127 C364.70743124 118.19047639 364.6949982 122.48696175 364.68261719 126.78344727 C364.6789182 128.06634314 364.6789182 128.06634314 364.67514448 129.3751561 C364.63554494 143.17857467 364.6027413 156.98200131 364.57250018 170.78544319 C364.54125964 184.97514397 364.50259763 199.1648109 364.45720994 213.35447353 C364.42948818 222.09278262 364.40738551 230.83106729 364.39273749 239.56940823 C364.38210145 245.58175612 364.36418258 251.59405639 364.34083296 257.60636819 C364.32761721 261.06231039 364.31732671 264.51818663 364.31578636 267.97415543 C364.27020055 318.82661624 357.20953321 370.4903508 320.625 408.75 C300.40825497 428.07377926 275.70180301 438.80573183 249 446 C249 446.33 249 446.66 249 447 C274.4325199 446.13199591 300.46746826 439.92443261 323 428 C323.87809326 427.54222168 323.87809326 427.54222168 324.77392578 427.07519531 C356.62427066 410.33012159 377.37906472 382.91480866 388.37011719 348.92236328 C397.38076783 319.78481371 398.1566794 290.36510206 398.11352539 260.09155273 C398.11268326 257.30090305 398.11335866 254.51025419 398.1139679 251.71960449 C398.11448877 245.74377935 398.11138791 239.76796524 398.10573006 233.79214287 C398.09755544 225.15242179 398.09499377 216.51270597 398.09374207 207.87298144 C398.09156085 193.8509462 398.08492614 179.82891683 398.07543945 165.80688477 C398.06624116 152.19685902 398.05917219 138.58683487 398.05493164 124.97680664 C398.05466892 124.13595319 398.05440619 123.29509974 398.05413551 122.42876589 C398.05283034 118.20987452 398.05156666 113.99098313 398.05032361 109.77209175 C398.03998 74.84805682 398.02210931 39.92402935 398 5 C387.11 5 376.22 5 365 5 Z " fill="#313131" transform="translate(41,21)"/>
</svg>
